<?xml version="1.0" encoding="UTF-8"?>
<!-- SPDX-License-Identifier: AGPL-3.0-or-later -->
<!-- Original app icon: a register/grid with a highlighted "smart" row. -->
<svg xmlns="http://www.w3.org/2000/svg" viewBox="0 0 16 16" fill="none">
	<path fill="currentColor" d="M2 2.75A1.75 1.75 0 0 1 3.75 1h8.5A1.75 1.75 0 0 1 14 2.75v10.5A1.75 1.75 0 0 1 12.25 15h-8.5A1.75 1.75 0 0 1 2 13.25V2.75Zm1.5.25v2h9V3a.25.25 0 0 0-.25-.25H3.75A.25.25 0 0 0 3.5 3Zm0 3.5v2.25h3.25V6.5H3.5Zm4.75 0v2.25h4.25V6.5H8.25Zm-4.75 3.75v3h3.25v-3H3.5Zm4.75 0v3h4a.25.25 0 0 0 .25-.25v-2.75H8.25Z"/>
	<circle cx="11.5" cy="11" r="2.4" fill="#fff"/>
	<path fill="currentColor" d="m10.7 11.05.55.55 1.2-1.3.62.57-1.8 1.95-1.15-1.15.58-.62Z"/>
</svg>
